HIERARCHY
ROOT Hips
{
	OFFSET	0.00	0.00	0.00
	CHANNELS 6 Xposition Yposition Zposition Zrotation Xrotation Yrotation
	JOINT LeftUpLeg
	{
		OFFSET	 0.126116	-0.014019	-0.065224
		CHANNELS 3 Zrotation Xrotation Yrotation
		JOINT LeftLeg
		{
			OFFSET	 0.000000	 0.000000	 0.569914
			CHANNELS 3 Zrotation Xrotation Yrotation
			JOINT LeftFoot
			{
				OFFSET	 0.000000	 0.000000	 0.544423
				CHANNELS 3 Zrotation Xrotation Yrotation
				JOINT LeftToeBase
				{
					OFFSET	 0.000000	 0.000000	 0.207117
					CHANNELS 3 Zrotation Xrotation Yrotation
					End Site
					{
						OFFSET	 0.000000	 0.000000	 0.207117
					}
				}
			}
		}
	}
	JOINT RightUpLeg
	{
		OFFSET	-0.124023	-0.008373	-0.065224
		CHANNELS 3 Zrotation Xrotation Yrotation
		JOINT RightLeg
		{
			OFFSET	 0.000000	 0.000000	 0.570047
			CHANNELS 3 Zrotation Xrotation Yrotation
			JOINT RightFoot
			{
				OFFSET	 0.000000	 0.000000	 0.544354
				CHANNELS 3 Zrotation Xrotation Yrotation
				JOINT RightToeBase
				{
					OFFSET	 0.000000	 0.000000	 0.207540
					CHANNELS 3 Zrotation Xrotation Yrotation
					End Site
					{
						OFFSET	 0.000000	 0.000000	 0.207540
					}
				}
			}
		}
	}
	JOINT Spine
	{
		OFFSET	 0.000184	-0.007763	 0.117403
		CHANNELS 3 Zrotation Xrotation Yrotation
		JOINT Spine1
		{
			OFFSET	 0.000000	 0.000000	 0.137269
			CHANNELS 3 Zrotation Xrotation Yrotation
			JOINT Spine2
			{
				OFFSET	 0.000000	 0.000000	 0.156879
				CHANNELS 3 Zrotation Xrotation Yrotation
				JOINT LeftShoulder
				{
					OFFSET	 0.080501	-0.002496	 0.160144
					CHANNELS 3 Zrotation Xrotation Yrotation
					JOINT LeftArm
					{
						OFFSET	 0.000000	 0.000000	 0.164363
						CHANNELS 3 Zrotation Xrotation Yrotation
						JOINT LeftForeArm
						{
							OFFSET	 0.000000	 0.000000	 0.364576
							CHANNELS 3 Zrotation Xrotation Yrotation
							JOINT LeftHand
							{
								OFFSET	 0.000000	 0.000000	 0.360812
								CHANNELS 3 Zrotation Xrotation Yrotation
								JOINT LeftHandIndex1
								{
									OFFSET	 0.000000	 0.000000	 0.086006
									CHANNELS 3 Zrotation Xrotation Yrotation
									JOINT LeftHandIndex2
									{
										OFFSET	 0.000000	 0.000000	 0.047236
										CHANNELS 3 Zrotation Xrotation Yrotation
										JOINT LeftHandIndex3
										{
											OFFSET	-0.004284	-0.000551	 0.038166
											CHANNELS 3 Zrotation Xrotation Yrotation
											End Site
											{
												OFFSET	-0.004284	-0.000551	 0.038166
											}
										}
									}
								}
							}
						}
					}
				}
				JOINT Neck
				{
					OFFSET	 0.000000	 0.000000	 0.176489
					CHANNELS 3 Zrotation Xrotation Yrotation
					JOINT Head
					{
						OFFSET	 0.000000	-0.001747	 0.077940
						CHANNELS 3 Zrotation Xrotation Yrotation
						End Site
						{
							OFFSET	 0.000000	-0.001747	 0.077940
						}
					}
				}
				JOINT RightShoulder
				{
					OFFSET	-0.080363	 0.000306	 0.159706
					CHANNELS 3 Zrotation Xrotation Yrotation
					JOINT RightArm
					{
						OFFSET	 0.000000	 0.000000	 0.164196
						CHANNELS 3 Zrotation Xrotation Yrotation
						JOINT RightForeArm
						{
							OFFSET	 0.000000	 0.000000	 0.365611
							CHANNELS 3 Zrotation Xrotation Yrotation
							JOINT RightHand
							{
								OFFSET	 0.000000	 0.000000	 0.360648
								CHANNELS 3 Zrotation Xrotation Yrotation
								JOINT RightHandIndex1
								{
									OFFSET	 0.000000	 0.000000	 0.069977
									CHANNELS 3 Zrotation Xrotation Yrotation
									JOINT RightHandIndex2
									{
										OFFSET	 0.000000	 0.000000	 0.052305
										CHANNELS 3 Zrotation Xrotation Yrotation
										JOINT RightHandIndex3
										{
											OFFSET	 0.009002	-0.000782	 0.042196
											CHANNELS 3 Zrotation Xrotation Yrotation
											End Site
											{
												OFFSET	 0.009002	-0.000782	 0.042196
											}
										}
									}
								}
							}
						}
					}
				}
			}
		}
	}
}
MOTION
Frames:    8
Frame Time: 0.03333334
-0.169112	 0.243131	 0.988306	 91.015130	 3.918191	-0.949945	 9.951694	 16.981370	-176.340500	-6.132206	-11.623660	 1.542004	-21.279640	 89.266180	 24.767520	-2.299355	 39.886550	-0.272591	 3.934976	-45.829730	 179.363200	-0.725131	-45.180900	 3.301160	-177.344500	 83.361440	-178.641600	 2.406056	 20.458990	-0.163977	-2.018434	 1.935960	 2.708382	-2.744272	-5.818873	 0.986061	-2.924312	-9.931713	-1.068605	-91.776180	 78.527400	 180.000000	 45.804860	 63.967530	-61.118440	-7.077066	-5.190226	-29.147250	 4.918406	-9.956173	-5.444954	-3.812334	 37.924440	-2.927599	-2.450526	 36.184240	 0.754587	-1.378229	 35.397820	-2.634230	-0.124853	 5.075384	-2.341585	-0.537896	-24.097390	-2.714610	 89.782100	 78.203850	-180.000000	-36.278900	 75.560120	 39.994700	 3.948070	-7.342416	 21.061490	-14.252170	-11.053140	 9.709940	 6.437017	 35.671460	-0.771858	 2.830251	 35.756010	-7.813440	-2.350882	 35.473990	 5.254307
-0.150542	 0.245852	 0.982340	 88.202350	 4.040813	-0.936208	 9.640307	 17.685810	-176.280200	-5.911006	-11.624520	 1.535665	-14.382140	 89.131370	 17.834420	-2.286659	 40.971910	-0.301993	 4.338709	-45.843090	 179.920300	-0.514382	-42.784180	 3.411224	-176.776600	 83.985130	-178.769300	 2.397716	 24.762090	-0.076696	-2.106657	 2.025215	 2.729715	-2.838069	-5.628662	 0.940459	-2.965571	-9.642303	-1.104399	-91.776180	 78.527400	 180.000000	 41.979760	 62.137250	-57.227290	-6.548228	-4.587914	-27.241370	 4.170606	-9.974692	-5.443512	-3.812334	 37.924440	-2.927599	-2.450526	 36.184240	 0.754587	-1.378229	 35.397820	-2.634230	-0.210128	 4.923178	-2.342567	-0.577886	-23.432770	-2.691862	 89.782090	 78.203890	-180.000000	-30.676990	 73.059170	 34.419840	 3.914951	-6.525192	 19.925830	-12.989500	-11.069290	 9.707540	 6.437017	 35.671460	-0.771858	 2.830251	 35.756010	-7.813440	-2.350882	 35.473990	 5.254307
-0.125255	 0.245385	 0.981237	 88.790470	 4.149815	-1.150937	 9.279449	 18.691830	-176.343000	-5.573022	-11.624640	 1.535080	-7.015512	 88.853120	 10.463110	-2.267293	 42.488330	-0.344472	 4.657526	-45.605690	-179.483400	-0.033585	-42.139060	 3.801740	-176.029100	 84.955860	-179.032200	 2.383235	 28.706110	 0.006869	-2.242665	 1.888836	 2.687240	-2.989225	-5.684253	 0.839092	-3.063592	-9.626385	-1.160500	-91.776180	 78.527400	-180.000000	 42.927330	 62.424120	-58.224660	-6.306784	-4.583342	-26.080830	 4.476601	-10.014760	-5.441045	-3.812334	 37.924440	-2.927599	-2.450526	 36.184240	 0.754587	-1.378229	 35.397820	-2.634230	-0.320354	 5.112454	-2.301578	-0.662023	-23.700900	-2.709167	 89.782120	 78.203870	 180.000000	-30.104820	 73.307560	 33.435900	 3.837667	-6.448789	 19.448700	-13.148650	-11.104350	 9.704097	 6.437017	 35.671460	-0.771858	 2.830251	 35.756010	-7.813440	-2.350882	 35.473990	 5.254307
-0.110015	 0.244855	 0.981522	 89.064190	 4.213783	-1.238018	 9.100793	 19.293060	-176.445500	-5.357016	-11.624110	 1.539095	-3.482977	 88.591940	 6.953377	-2.254672	 43.400490	-0.370862	 4.832434	-45.428550	-179.213900	 0.175756	-42.076540	 4.012270	-175.620100	 85.522360	-179.226600	 2.377646	 29.856820	 0.032085	-2.312138	 1.816556	 2.626976	-3.059263	-5.721120	 0.776063	-3.088206	-9.601297	-1.188809	-91.776180	 78.527400	 180.000000	 43.426560	 62.687520	-58.670190	-6.226683	-4.573081	-25.376010	 4.658944	-10.044900	-5.439388	-3.812334	 37.924440	-2.927599	-2.450526	 36.184240	 0.754587	-1.378229	 35.397820	-2.634230	-0.380929	 5.189883	-2.295039	-0.706422	-23.770880	-2.691825	 89.782120	 78.203870	 180.000000	-29.670300	 73.491620	 32.803230	 3.855995	-6.411746	 19.196740	-13.244380	-11.131500	 9.701599	 6.437017	 35.671460	-0.771858	 2.830251	 35.756010	-7.813440	-2.350882	 35.473990	 5.254307
-0.085978	 0.243786	 0.980105	 89.458850	 4.329234	-1.346625	 8.863158	 20.222970	-176.669600	-5.003745	-11.622640	 1.550467	 0.462814	 88.001300	 3.077364	-2.231109	 44.968680	-0.417885	 5.094476	-45.047990	-178.840900	 0.517739	-42.329400	 4.392113	-175.562100	 86.382960	-178.975400	 2.376191	 30.136320	 0.038269	-2.423657	 1.669373	 2.507309	-3.165000	-5.793598	 0.665335	-3.124769	-9.564949	-1.232319	-91.776180	 78.527400	-180.000000	 44.143390	 63.197840	-59.244180	-6.185528	-4.548020	-24.285510	 4.940305	-10.100860	-5.436323	-3.812334	 37.924440	-2.927599	-2.450526	 36.184240	 0.754587	-1.378229	 35.397820	-2.634230	-0.472817	 5.184506	-2.266321	-0.766169	-23.746960	-2.634069	 89.782090	 78.203830	-180.000000	-28.992060	 73.782240	 31.838510	 3.904444	-6.362554	 18.846290	-13.386650	-11.181030	 9.697707	 6.437017	 35.671460	-0.771858	 2.830251	 35.756010	-7.813440	-2.350882	 35.473990	 5.254307
-0.062532	 0.242574	 0.978786	 89.795680	 4.446091	-1.433787	 8.672951	 21.109220	-176.943600	-4.643675	-11.620440	 1.566898	 2.736845	 87.168980	 0.912467	-2.202563	 46.676290	-0.471673	 5.295135	-44.581890	-178.533300	 1.024412	-42.870290	 4.899736	-175.411100	 87.338540	-178.750700	 2.380392	 29.308320	 0.020014	-2.534257	 1.514937	 2.361826	-3.256510	-5.881258	 0.561227	-3.133954	-9.542034	-1.275572	-91.776180	 78.527400	-180.000000	 44.706260	 63.806710	-59.546780	-6.233957	-4.515800	-23.263760	 5.206609	-10.164600	-5.432635	-3.812334	 37.924440	-2.927599	-2.450526	 36.184240	 0.754587	-1.378229	 35.397820	-2.634230	-0.556994	 5.095637	-2.226427	-0.813305	-23.622260	-2.543998	 89.782140	 78.203830	 180.000000	-28.315270	 74.058610	 30.894480	 3.970650	-6.321396	 18.551550	-13.509230	-11.235990	 9.694397	 6.437017	 35.671460	-0.771858	 2.830251	 35.756010	-7.813440	-2.350882	 35.473990	 5.254307
-0.037375	 0.241029	 0.978369	 90.101460	 4.516407	-1.487594	 8.518207	 22.031130	-177.310000	-4.241221	-11.617410	 1.589557	 4.064471	 85.956630	-0.253154	-2.167105	 48.562230	-0.534658	 5.284746	-44.028810	-178.461600	 2.139760	-43.649470	 5.778534	-174.478400	 88.634410	-179.009300	 2.380887	 29.206890	 0.017792	-2.654644	 1.356225	 2.134769	-3.335490	-5.994871	 0.461928	-3.099995	-9.546592	-1.322326	-91.776180	 78.527400	-180.000000	 45.107710	 64.577670	-59.504290	-6.372893	-4.475895	-22.230620	 5.482351	-10.241100	-5.428341	-3.812334	 37.924440	-2.927599	-2.450526	 36.184240	 0.754587	-1.378229	 35.397820	-2.634230	-0.642372	 4.970553	-2.173391	-0.857290	-23.429470	-2.429676	 89.782120	 78.203870	 180.000000	-27.548630	 74.339620	 29.836870	 4.058892	-6.281261	 18.279960	-13.617050	-11.301060	 9.691865	 6.437017	 35.671460	-0.771858	 2.830251	 35.756010	-7.813440	-2.350882	 35.473990	 5.254307
-0.011826	 0.239326	 0.978706	 90.330980	 4.490112	-1.466307	 8.450169	 22.935920	-177.775700	-3.822490	-11.612870	 1.622816	 4.753859	 84.343830	-0.701155	-2.127461	 50.428100	-0.601215	 4.943799	-43.468220	-178.684100	 3.893232	-44.549570	 6.988482	 7.656375	 89.698040	-0.247366	 2.375550	 30.258050	 0.040969	-2.750487	 1.209536	 1.799883	-3.372004	-6.116412	 0.360107	-3.044415	-9.584215	-1.346528	-91.776170	 78.527420	-180.000000	 45.310920	 65.458280	-59.138070	-6.599702	-4.433135	-21.261330	 5.751342	-10.326050	-5.423731	-3.812334	 37.924440	-2.927599	-2.450526	 36.184240	 0.754587	-1.378229	 35.397820	-2.634230	-0.729447	 4.862828	-2.109706	-0.906304	-23.218620	-2.302264	 89.782120	 78.203870	 180.000000	-26.705400	 74.601880	 28.678450	 4.164273	-6.242035	 18.045950	-13.696380	-11.372760	 9.690763	 6.437017	 35.671460	-0.771858	 2.830251	 35.756010	-7.813440	-2.350882	 35.473990	 5.254307
